<?xml version="1.0" encoding="UTF-8"?>
<svg width="16px" height="17px" viewBox="0 0 16 17" version="1.1" xmlns="http://www.w3.org/2000/svg" xmlns:xlink="http://www.w3.org/1999/xlink">
    <!-- Generator: Sketch 47.1 (45422) - http://www.bohemiancoding.com/sketch -->
    <title>mail</title>
    <desc>Created with Sketch.</desc>
    <defs></defs>
    <g id="Page-1" stroke="none" stroke-width="1" fill="none" fill-rule="evenodd">
        <g id="mail" transform="translate(0.000000, 0.333333)" fill-rule="nonzero" fill="#000000">
            <path d="M13.657,2.343 C12.146,0.832 10.137,0 8,0 C5.863,0 3.854,0.832 2.343,2.343 C0.832,3.854 0,5.863 0,8 C0,10.137 0.832,12.146 2.343,13.657 C3.854,15.168 5.863,16 8,16 C9.199,16 10.353,15.741 11.429,15.23 C11.928,14.993 12.14,14.396 11.903,13.898 C11.666,13.4 11.069,13.187 10.571,13.424 C9.765,13.807 8.9,14.001 8,14.001 C4.692,14.001 2,11.309 2,8.001 C2,4.693 4.692,2.001 8,2.001 C11.308,2.001 14,4.693 14,8.001 L14,9.001 C14,9.552 13.551,10.001 13,10.001 C12.449,10.001 12,9.552 12,9.001 L12,5.001 C12,4.449 11.552,4.001 11,4.001 C10.594,4.001 10.245,4.243 10.088,4.591 C9.48,4.217 8.765,4.001 8,4.001 C5.794,4.001 4,5.795 4,8.001 C4,10.207 5.794,12.001 8,12.001 C9.045,12.001 9.998,11.598 10.712,10.939 C11.263,11.588 12.084,12.001 13,12.001 C14.654,12.001 16,10.655 16,9.001 L16,8.001 C16,5.864 15.168,3.855 13.657,2.344 L13.657,2.343 Z M8,10 C6.897,10 6,9.103 6,8 C6,6.897 6.897,6 8,6 C9.103,6 10,6.897 10,8 C10,9.103 9.103,10 8,10 Z" id="Shape"></path>
        </g>
    </g>
</svg>