<?xml version="1.0" encoding="UTF-8"?><svg version="1.1" viewBox="0 0 16 16" xmlns="http://www.w3.org/2000/svg" xmlns:xlink="http://www.w3.org/1999/xlink"><!--Generated by IJSVG (https://github.com/curthard89/IJSVG)--><g fill="#4F8DF8"><path d="M9,2.29v2.124c0.566,0.247 1.086,0.6 1.536,1.05c0.944,0.944 1.464,2.2 1.464,3.536c0,1.336 -0.52,2.591 -1.464,3.536c-0.944,0.944 -2.2,1.464 -3.536,1.464c-1.336,0 -2.591,-0.52 -3.536,-1.464c-0.944,-0.944 -1.464,-2.2 -1.464,-3.536c0,-1.336 0.52,-2.591 1.464,-3.536c0.45,-0.45 0.97,-0.803 1.536,-1.05v-2.124c-2.891,0.861 -5,3.539 -5,6.71c0,3.866 3.134,7 7,7c3.866,0 7,-3.134 7,-7c0,-3.171 -2.109,-5.849 -5,-6.71Zm-3,-2.29h2v8h-2Z" transform="translate(1, 0)"></path></g></svg>