<?xml version="1.0" encoding="UTF-8"?>
<svg width="16px" height="17px" viewBox="0 0 16 17" version="1.1" xmlns="http://www.w3.org/2000/svg" xmlns:xlink="http://www.w3.org/1999/xlink">
    <!-- Generator: Sketch 47.1 (45422) - http://www.bohemiancoding.com/sketch -->
    <title>link</title>
    <desc>Created with Sketch.</desc>
    <defs></defs>
    <g id="Page-1" stroke="none" stroke-width="1" fill="none" fill-rule="evenodd">
        <g id="link" transform="translate(0.000000, 0.666667)" fill-rule="nonzero" fill="#000000">
            <path d="M6.879,9.934 C6.671,9.934 6.463,9.855 6.304,9.696 C4.818,8.21 4.818,5.791 6.304,4.304 L9.304,1.304 C10.024,0.584 10.982,0.187 12,0.187 C13.018,0.187 13.976,0.584 14.696,1.304 C16.182,2.791 16.182,5.209 14.696,6.696 L13.325,8.067 C13.008,8.384 12.493,8.384 12.176,8.067 C11.859,7.75 11.859,7.235 12.176,6.918 L13.547,5.547 C14.4,4.694 14.4,3.306 13.547,2.453 C13.134,2.04 12.584,1.812 12,1.812 C11.416,1.812 10.866,2.04 10.453,2.453 L7.453,5.453 C6.6,6.306 6.6,7.694 7.453,8.547 C7.77,8.864 7.77,9.379 7.453,9.696 C7.294,9.855 7.086,9.934 6.878,9.934 L6.879,9.934 Z" id="Shape"></path>
            <path d="M4,15.813 C2.982,15.813 2.024,15.416 1.304,14.696 C-0.182,13.21 -0.182,10.791 1.304,9.304 L2.675,7.933 C2.992,7.616 3.507,7.616 3.824,7.933 C4.141,8.25 4.141,8.765 3.824,9.082 L2.453,10.453 C1.6,11.306 1.6,12.694 2.453,13.547 C2.866,13.96 3.415,14.188 4,14.188 C4.585,14.188 5.134,13.96 5.547,13.547 L8.547,10.547 C9.4,9.694 9.4,8.306 8.547,7.453 C8.23,7.136 8.23,6.621 8.547,6.304 C8.864,5.987 9.379,5.987 9.696,6.304 C11.182,7.79 11.182,10.209 9.696,11.696 L6.696,14.696 C5.976,15.416 5.018,15.813 4,15.813 L4,15.813 Z" id="Shape"></path>
        </g>
    </g>
</svg>