<?xml version="1.0" encoding="UTF-8"?>
<svg width="16px" height="16px" viewBox="0 0 16 16" version="1.1" xmlns="http://www.w3.org/2000/svg" xmlns:xlink="http://www.w3.org/1999/xlink">
    <!-- Generator: Sketch 47.1 (45422) - http://www.bohemiancoding.com/sketch -->
    <title>phone</title>
    <desc>Created with Sketch.</desc>
    <defs></defs>
    <g id="Page-1" stroke="none" stroke-width="1" fill="none" fill-rule="evenodd">
        <g id="phone" fill-rule="nonzero" fill="#000000">
            <path d="M11,10 C12,9 15,12 15,13 C15,14 12,16 12,16 C10,16 5.945,13.945 4,12 C2.055,10.055 0,6 0,4 C0,4 2,1 3,1 C4,1 7,4 6,5 C5,6 4,6 4,7 C4,8 5,9 6,10 C7,11 8,12 9,12 C10,12 10,11 11,10 Z" id="Shape"></path>
            <path d="M11.5,8 C11.224,8 11,7.776 11,7.5 C11,6.122 9.879,5 8.5,5 C8.224,5 8,4.776 8,4.5 C8,4.224 8.224,4 8.5,4 C10.43,4 12,5.57 12,7.5 C12,7.776 11.776,8 11.5,8 Z" id="Shape"></path>
            <path d="M13.5,8 C13.224,8 13,7.776 13,7.5 C13,5.019 10.981,3 8.5,3 C8.224,3 8,2.776 8,2.5 C8,2.224 8.224,2 8.5,2 C11.533,2 14,4.467 14,7.5 C14,7.776 13.776,8 13.5,8 Z" id="Shape"></path>
            <path d="M15.5,8 C15.224,8 15,7.776 15,7.5 C15,3.916 12.084,1 8.5,1 C8.224,1 8,0.776 8,0.5 C8,0.224 8.224,0 8.5,0 C10.503,0 12.387,0.78 13.803,2.197 C15.219,3.614 16,5.497 16,7.5 C16,7.776 15.776,8 15.5,8 Z" id="Shape"></path>
        </g>
    </g>
</svg>